<?xml version="1.0" standalone="no"?>
<!DOCTYPE svg PUBLIC "-//W3C//DTD SVG 1.0//EN" "http://www.w3.org/TR/2001/REC-SVG-20010904/DTD/svg10.dtd">
<svg xmlns="http://www.w3.org/2000/svg" xmlns:xlink="http://www.w3.org/1999/xlink" id="body_1225008280_82593" width="3174.8049" height="4490.081">

<g transform="matrix(10.942246 0 0 -10.942246 1557.1292 1735.3803)" >
    <g>
            <path d="M44.551027 -53.509958L44.934688 -53.49656L45.316479 -53.456432L45.694541 -53.38977L46.067033 -53.296897L46.432138 -53.178267L46.788079 -53.034458L47.133121 -52.86617L47.86101 -52.402453" stroke="#000000" stroke-width="0.077507435" stroke-linecap="round" fill="none" />
            <path d="M100.66046 -12.615207L100.95881 -12.373615L101.23957 -12.111799L101.50138 -11.831037L101.74298 -11.532695L101.96317 -11.218227L102.16089 -10.889165L102.35174 -10.511247" stroke="#000000" stroke-width="0.077507435" stroke-linecap="round" fill="none" />
            <path d="M114.70062 13.239878L114.35693 13.06885L114.026 12.874264L113.70946 12.657067L113.40884 12.418319L113.1256 12.159182L112.86113 11.880918L112.61671 11.584884L112.39354 11.272522L112.19271 10.945352L111.97632 10.52187" stroke="#000000" stroke-width="0.077507435" stroke-linecap="round" fill="none" />
            <path d="M30.619898 66.377528L31.003558 66.390926L31.38535 66.431054L31.763412 66.497716L32.135903 66.590589L32.944298 66.892835" stroke="#000000" stroke-width="0.077507435" stroke-linecap="round" fill="none" />
            <path d="M106.10209 88.097684L106.09941 88.174416L106.09138 88.250775L106.07805 88.326387L106.05948 88.400885L106.03575 88.473906L106.00699 88.545094L105.97333 88.614103L105.93494 88.680595L105.89201 88.744248L105.84474 88.80475L105.79336 88.861808L105.73813 88.915143L105.67932 88.964496L105.6172 89.009625L105.55209 89.050312L105.4843 89.086358L105.41415 89.117586L105.34201 89.143846L105.2682 89.165009L105.1931 89.180973L105.11707 89.191658L105.04048 89.197014L104.9637 89.197014L104.88711 89.191658L104.81107 89.180973L104.73597 89.165009L104.66217 89.143846L104.59002 89.117586L104.51988 89.086358L104.45209 89.050312L104.38698 89.009625L104.32486 88.964496L104.26604 88.915143L104.21081 88.861808L104.15944 88.80475L104.11217 88.744248L104.06923 88.680595L104.03085 88.614103L103.99719 88.545094L103.96843 88.473906L103.9447 88.400885L103.92613 88.326387L103.91279 88.250775L103.90477 88.174416L103.90209 88.097684L103.90477 88.020952L103.91279 87.944594L103.92613 87.868981L103.9447 87.794483L103.96843 87.721462L103.99719 87.650274L104.03085 87.581265L104.06923 87.514773L104.11217 87.45112L104.15944 87.390618L104.21081 87.33356L104.26604 87.280225L104.32486 87.230872L104.38698 87.185743L104.45209 87.145056L104.51988 87.109011L104.59002 87.077782L104.66217 87.051522L104.73597 87.030359L104.81107 87.014396L104.88711 87.00371L104.9637 86.998354L105.04048 86.998354L105.11707 87.00371L105.1931 87.014396L105.2682 87.030359L105.34201 87.051522L105.41415 87.077782L105.4843 87.109011L105.55209 87.145056L105.6172 87.185743L105.67932 87.230872L105.73813 87.280225L105.79336 87.33356L105.84474 87.390618L105.89201 87.45112L105.93494 87.514773L105.97333 87.581265L106.00699 87.650274L106.03575 87.721462L106.05948 87.794483L106.07805 87.868981L106.09138 87.944594L106.10209 88.097684" stroke="#000000" stroke-width="0.077507435" stroke-linecap="round" fill="none" />
            <path d="M26.03978 60.877528L26.037101 60.95426L26.029075 61.030619L26.015743 61.106231L25.997168 61.180729L25.973442 61.25375L25.94468 61.324938L25.911023 61.393947L25.872633 61.460439L25.829699 61.524092L25.782429 61.584595L25.731054 61.641652L25.675824 61.694987L25.617008 61.74434L25.554892 61.789469L25.48978 61.830156L25.421988 61.866202L25.351847 61.89743L25.279699 61.92369L25.205894 61.944853L25.130793 61.960817L25.054761 61.971502L24.97817 61.976858L24.901391 61.976858L24.824799 61.971502L24.748767 61.960817L24.673666 61.944853L24.599861 61.92369L24.527713 61.89743L24.457572 61.866202L24.38978 61.830156L24.324668 61.789469L24.262553 61.74434L24.203736 61.694987L24.148506 61.641652L24.097131 61.584595L24.049861 61.524092L24.006927 61.460439L23.968538 61.393947L23.93488 61.324938L23.906118 61.25375L23.882392 61.180729L23.863818 61.106231L23.850485 61.030619L23.84246 60.95426L23.83978 60.877528L23.84246 60.800796L23.850485 60.724438L23.863818 60.648825L23.882392 60.574327L23.906118 60.501306L23.93488 60.430118L23.968538 60.361109L24.006927 60.294617L24.049861 60.230964L24.097131 60.170462L24.148506 60.113404L24.203736 60.060069L24.262553 60.010716L24.324668 59.965587L24.38978 59.9249L24.457572 59.888855L24.527713 59.857626L24.599861 59.831366L24.673666 59.810203L24.748767 59.79424L24.824799 59.783554L24.901391 59.778198L24.97817 59.778198L25.054761 59.783554L25.130793 59.79424L25.205894 59.810203L25.279699 59.831366L25.351847 59.857626L25.421988 59.888855L25.48978 59.9249L25.554892 59.965587L25.617008 60.010716L25.675824 60.060069L25.731054 60.113404L25.782429 60.170462L25.829699 60.230964L25.872633 60.294617L25.911023 60.361109L25.94468 60.430118L25.973442 60.501306L25.997168 60.574327L26.015743 60.648825L26.029075 60.724438L26.03978 60.877528" stroke="#000000" stroke-width="0.077507435" stroke-linecap="round" fill="none" />
            <path d="M108.64354 16.02696L108.64086 16.103692L108.63284 16.18005L108.6195 16.255663L108.60093 16.330161L108.5772 16.403182L108.54844 16.47437L108.51478 16.543379L108.47639 16.609871L108.43346 16.673524L108.38619 16.734026L108.33482 16.791084L108.27959 16.844419L108.22077 16.893772L108.15865 16.938901L108.09354 16.979588L108.02575 17.015633L107.95561 17.046862L107.88346 17.073122L107.80966 17.094285L107.73455 17.110248L107.65852 17.120934L107.58193 17.12629L107.50515 17.12629L107.42856 17.120934L107.35253 17.110248L107.27743 17.094285L107.20362 17.073122L107.13147 17.046862L107.06133 17.015633L106.99354 16.979588L106.92843 16.938901L106.86631 16.893772L106.8075 16.844419L106.75227 16.791084L106.70089 16.734026L106.65362 16.673524L106.61069 16.609871L106.5723 16.543379L106.53864 16.47437L106.50988 16.403182L106.48615 16.330161L106.46758 16.255663L106.45425 16.18005L106.44622 16.103692L106.44354 16.02696L106.44622 15.950228L106.45425 15.873869L106.46758 15.798257L106.48615 15.723759L106.50988 15.650738L106.53864 15.57955L106.5723 15.510541L106.61069 15.444049L106.65362 15.380396L106.70089 15.319894L106.75227 15.262836L106.8075 15.209501L106.86631 15.160148L106.92843 15.115019L106.99354 15.074332L107.06133 15.038286L107.13147 15.007058L107.20362 14.980798L107.27743 14.959635L107.35253 14.943671L107.42856 14.932986L107.50515 14.92763L107.58193 14.92763L107.65852 14.932986L107.73455 14.943671L107.80966 14.959635L107.88346 14.980798L107.95561 15.007058L108.02575 15.038286L108.09354 15.074332L108.15865 15.115019L108.22077 15.160148L108.27959 15.209501L108.33482 15.262836L108.38619 15.319894L108.43346 15.380396L108.47639 15.444049L108.51478 15.510541L108.54844 15.57955L108.5772 15.650738L108.60093 15.723759L108.6195 15.798257L108.63284 15.873869L108.64354 16.02696" stroke="#000000" stroke-width="0.077507435" stroke-linecap="round" fill="none" />
            <path d="M42.587074 -13.703281L42.584394 -13.626549L42.576369 -13.55019L42.563036 -13.474578L42.544462 -13.40008L42.520736 -13.327059L42.491974 -13.25587L42.458316 -13.186862L42.419927 -13.12037L42.376993 -13.056717L42.329723 -12.996214L42.278348 -12.939157L42.223118 -12.885821L42.164301 -12.836469L42.102186 -12.791339L42.037074 -12.750653L41.969282 -12.714607L41.899141 -12.683379L41.826993 -12.657119L41.753188 -12.635955L41.678087 -12.619992L41.602055 -12.609307L41.525463 -12.603951L41.448684 -12.603951L41.372093 -12.609307L41.296061 -12.619992L41.22096 -12.635955L41.147155 -12.657119L41.075007 -12.683379L41.004866 -12.714607L40.937074 -12.750653L40.871962 -12.791339L40.809846 -12.836469L40.75103 -12.885821L40.6958 -12.939157L40.644425 -12.996214L40.597155 -13.056717L40.554221 -13.12037L40.515831 -13.186862L40.482174 -13.25587L40.453412 -13.327059L40.429686 -13.40008L40.411111 -13.474578L40.397779 -13.55019L40.389753 -13.626549L40.387074 -13.703281L40.389753 -13.780013L40.397779 -13.856371L40.411111 -13.931984L40.429686 -14.006482L40.453412 -14.079503L40.482174 -14.150691L40.515831 -14.2197L40.554221 -14.286192L40.597155 -14.349845L40.644425 -14.410347L40.6958 -14.467405L40.75103 -14.52074L40.809846 -14.570093L40.871962 -14.615222L40.937074 -14.655909L41.004866 -14.691954L41.075007 -14.723183L41.147155 -14.749443L41.22096 -14.770606L41.296061 -14.786569L41.372093 -14.797255L41.448684 -14.802611L41.525463 -14.802611L41.602055 -14.797255L41.678087 -14.786569L41.753188 -14.770606L41.826993 -14.749443L41.899141 -14.723183L41.969282 -14.691954L42.037074 -14.655909L42.102186 -14.615222L42.164301 -14.570093L42.223118 -14.52074L42.278348 -14.467405L42.329723 -14.410347L42.376993 -14.349845L42.419927 -14.286192L42.458316 -14.2197L42.491974 -14.150691L42.520736 -14.079503L42.544462 -14.006482L42.563036 -13.931984L42.576369 -13.856371L42.587074 -13.703281" stroke="#000000" stroke-width="0.077507435" stroke-linecap="round" fill="none" />
            <path d="M91.432352 93.597684L91.048691 93.584286L90.6669 93.544159L90.288837 93.477496L89.916346 93.384623L89.107951 93.082377" stroke="#000000" stroke-width="0.077507435" stroke-linecap="round" fill="none" />
            <path d="M120.17977 90.422085L120.00549 90.764137L119.80777 91.093199L119.58758 91.407667L119.34598 91.706009L119.08417 91.986771L118.80341 92.248587L118.50506 92.490179L118.1906 92.710372L117.86153 92.908093L117.51948 93.082377L117.16611 93.232376L116.80313 93.35736L116.43231 93.45672L116.05547 93.52997L115.19508 93.597684" stroke="#000000" stroke-width="0.077507435" stroke-linecap="round" fill="none" />
            <path d="M146.56794 33.832487L146.71794 33.479111L146.84292 33.116131L146.94228 32.745318L147.01553 32.368476L147.06231 31.987443L147.08241 31.604075L147.07571 31.220239L147.04225 30.837805L146.98219 30.458637L146.89584 30.084582L146.7836 29.717462L146.64602 29.359066L146.48378 29.011139L146.29766 28.675378L146.08858 28.353416L145.85755 28.046825L145.60569 27.757096L145.33423 27.485642L145.04451 27.233784L144.73791 27.002751L144.41595 26.793667L143.8602 26.501544" stroke="#000000" stroke-width="0.077507435" stroke-linecap="round" fill="none" />
            <path d="M-140.68838 33.832487L-140.83837 33.479111L-140.96336 33.116131L-141.06272 32.745318L-141.13597 32.368476L-141.18275 31.987443L-141.20284 31.604075L-141.19615 31.220239L-141.16269 30.837805L-141.10263 30.458637L-141.01627 30.084582L-140.90403 29.717462L-140.76646 29.359066L-140.60422 29.011139L-140.4181 28.675378L-140.20902 28.353416L-139.97799 28.046825L-139.72613 27.757096L-139.45467 27.485642L-139.16494 27.233784L-138.85835 27.002751L-138.53639 26.793667L-137.98064 26.501544" stroke="#000000" stroke-width="0.077507435" stroke-linecap="round" fill="none" />
            <path d="M-109.31552 93.597684L-109.69918 93.584286L-110.08097 93.544159L-110.45903 93.477496L-110.83153 93.384623L-111.19663 93.265993L-111.55257 93.122184L-111.89761 92.953896L-112.23008 92.761949L-112.54834 92.547278L-112.85085 92.310929L-113.13614 92.054053L-113.40282 91.777902L-113.64958 91.483822L-113.87523 91.173245L-114.30021 90.422085" stroke="#000000" stroke-width="0.077507435" stroke-linecap="round" fill="none" />
            <path d="M-83.22839 93.082377L-83.581767 93.232376L-83.944746 93.35736L-84.31556 93.45672L-84.692401 93.52997L-85.55279 93.597684" stroke="#000000" stroke-width="0.077507435" stroke-linecap="round" fill="none" />
            <path d="M-34.507512 -13.703281L-34.510192 -13.626549L-34.518218 -13.55019L-34.53155 -13.474578L-34.550125 -13.40008L-34.57385 -13.327059L-34.602612 -13.25587L-34.63627 -13.186862L-34.67466 -13.12037L-34.717594 -13.056717L-34.764864 -12.996214L-34.816239 -12.939157L-34.871469 -12.885821L-34.930285 -12.836469L-34.9924 -12.791339L-35.057512 -12.750653L-35.125304 -12.714607L-35.195445 -12.683379L-35.267594 -12.657119L-35.341398 -12.635955L-35.416499 -12.619992L-35.492531 -12.609307L-35.569123 -12.603951L-35.645902 -12.603951L-35.722494 -12.609307L-35.798525 -12.619992L-35.873627 -12.635955L-35.947431 -12.657119L-36.01958 -12.683379L-36.089721 -12.714607L-36.157512 -12.750653L-36.222625 -12.791339L-36.28474 -12.836469L-36.343556 -12.885821L-36.398786 -12.939157L-36.450161 -12.996214L-36.497431 -13.056717L-36.540365 -13.12037L-36.578755 -13.186862L-36.612412 -13.25587L-36.641174 -13.327059L-36.6649 -13.40008L-36.683475 -13.474578L-36.696807 -13.55019L-36.704833 -13.626549L-36.707512 -13.703281L-36.704833 -13.780013L-36.696807 -13.856371L-36.683475 -13.931984L-36.6649 -14.006482L-36.641174 -14.079503L-36.612412 -14.150691L-36.578755 -14.2197L-36.540365 -14.286192L-36.497431 -14.349845L-36.450161 -14.410347L-36.398786 -14.467405L-36.343556 -14.52074L-36.28474 -14.570093L-36.222625 -14.615222L-36.157512 -14.655909L-36.089721 -14.691954L-36.01958 -14.723183L-35.947431 -14.749443L-35.873627 -14.770606L-35.798525 -14.786569L-35.722494 -14.797255L-35.645902 -14.802611L-35.569123 -14.802611L-35.492531 -14.797255L-35.416499 -14.786569L-35.341398 -14.770606L-35.267594 -14.749443L-35.195445 -14.723183L-35.125304 -14.691954L-35.057512 -14.655909L-34.9924 -14.615222L-34.930285 -14.570093L-34.871469 -14.52074L-34.816239 -14.467405L-34.764864 -14.410347L-34.717594 -14.349845L-34.67466 -14.286192L-34.63627 -14.2197L-34.602612 -14.150691L-34.57385 -14.079503L-34.550125 -14.006482L-34.53155 -13.931984L-34.518218 -13.856371L-34.507512 -13.703281" stroke="#000000" stroke-width="0.077507435" stroke-linecap="round" fill="none" />
            <path d="M-100.56398 16.02696L-100.56666 16.103692L-100.57469 16.18005L-100.58802 16.255663L-100.60659 16.330161L-100.63032 16.403182L-100.65908 16.47437L-100.69274 16.543379L-100.73113 16.609871L-100.77406 16.673524L-100.82133 16.734026L-100.87271 16.791084L-100.92794 16.844419L-100.98675 16.893772L-101.04887 16.938901L-101.11398 16.979588L-101.18177 17.015633L-101.25191 17.046862L-101.32406 17.073122L-101.39787 17.094285L-101.47297 17.110248L-101.549 17.120934L-101.62559 17.12629L-101.70237 17.12629L-101.77896 17.120934L-101.85499 17.110248L-101.93009 17.094285L-102.0039 17.073122L-102.07605 17.046862L-102.14619 17.015633L-102.21398 16.979588L-102.27909 16.938901L-102.34121 16.893772L-102.40002 16.844419L-102.45525 16.791084L-102.50663 16.734026L-102.5539 16.673524L-102.59683 16.609871L-102.63522 16.543379L-102.66888 16.47437L-102.69764 16.403182L-102.72137 16.330161L-102.73994 16.255663L-102.75327 16.18005L-102.7613 16.103692L-102.76398 16.02696L-102.7613 15.950228L-102.75327 15.873869L-102.73994 15.798257L-102.72137 15.723759L-102.69764 15.650738L-102.66888 15.57955L-102.63522 15.510541L-102.59683 15.444049L-102.5539 15.380396L-102.50663 15.319894L-102.45525 15.262836L-102.40002 15.209501L-102.34121 15.160148L-102.27909 15.115019L-102.21398 15.074332L-102.14619 15.038286L-102.07605 15.007058L-102.0039 14.980798L-101.93009 14.959635L-101.85499 14.943671L-101.77896 14.932986L-101.70237 14.92763L-101.62559 14.92763L-101.549 14.932986L-101.47297 14.943671L-101.39787 14.959635L-101.32406 14.980798L-101.25191 15.007058L-101.18177 15.038286L-101.11398 15.074332L-101.04887 15.115019L-100.98675 15.160148L-100.92794 15.209501L-100.87271 15.262836L-100.82133 15.319894L-100.77406 15.380396L-100.73113 15.444049L-100.69274 15.510541L-100.65908 15.57955L-100.63032 15.650738L-100.60659 15.723759L-100.58802 15.798257L-100.57469 15.873869L-100.56398 16.02696" stroke="#000000" stroke-width="0.077507435" stroke-linecap="round" fill="none" />
            <path d="M-17.960219 60.877528L-17.962898 60.95426L-17.970924 61.030619L-17.984256 61.106231L-18.002831 61.180729L-18.026557 61.25375L-18.055319 61.324938L-18.088976 61.393947L-18.127366 61.460439L-18.1703 61.524092L-18.21757 61.584595L-18.268945 61.641652L-18.324175 61.694987L-18.382991 61.74434L-18.445107 61.789469L-18.510219 61.830156L-18.578011 61.866202L-18.648152 61.89743L-18.7203 61.92369L-18.794105 61.944853L-18.869206 61.960817L-18.945238 61.971502L-19.021829 61.976858L-19.098608 61.976858L-19.1752 61.971502L-19.251232 61.960817L-19.326333 61.944853L-19.400138 61.92369L-19.472286 61.89743L-19.542427 61.866202L-19.610219 61.830156L-19.675331 61.789469L-19.737446 61.74434L-19.796263 61.694987L-19.851493 61.641652L-19.902868 61.584595L-19.950138 61.524092L-19.993072 61.460439L-20.031461 61.393947L-20.065119 61.324938L-20.093881 61.25375L-20.117607 61.180729L-20.136181 61.106231L-20.149514 61.030619L-20.157539 60.95426L-20.160219 60.877528L-20.157539 60.800796L-20.149514 60.724438L-20.136181 60.648825L-20.117607 60.574327L-20.093881 60.501306L-20.065119 60.430118L-20.031461 60.361109L-19.993072 60.294617L-19.950138 60.230964L-19.902868 60.170462L-19.851493 60.113404L-19.796263 60.060069L-19.737446 60.010716L-19.675331 59.965587L-19.610219 59.9249L-19.542427 59.888855L-19.472286 59.857626L-19.400138 59.831366L-19.326333 59.810203L-19.251232 59.79424L-19.1752 59.783554L-19.098608 59.778198L-19.021829 59.778198L-18.945238 59.783554L-18.869206 59.79424L-18.794105 59.810203L-18.7203 59.831366L-18.648152 59.857626L-18.578011 59.888855L-18.510219 59.9249L-18.445107 59.965587L-18.382991 60.010716L-18.324175 60.060069L-18.268945 60.113404L-18.21757 60.170462L-18.1703 60.230964L-18.127366 60.294617L-18.088976 60.361109L-18.055319 60.430118L-18.026557 60.501306L-18.002831 60.574327L-17.984256 60.648825L-17.970924 60.724438L-17.960219 60.877528" stroke="#000000" stroke-width="0.077507435" stroke-linecap="round" fill="none" />
            <path d="M-98.022531 88.097684L-98.02521 88.174416L-98.033236 88.250775L-98.046568 88.326387L-98.065143 88.400885L-98.088869 88.473906L-98.117631 88.545094L-98.151288 88.614103L-98.189678 88.680595L-98.232612 88.744248L-98.279882 88.80475L-98.331257 88.861808L-98.386487 88.915143L-98.445303 88.964496L-98.507419 89.009625L-98.572531 89.050312L-98.640322 89.086358L-98.710463 89.117586L-98.782612 89.143846L-98.856417 89.165009L-98.931518 89.180973L-99.007549 89.191658L-99.084141 89.197014L-99.16092 89.197014L-99.237512 89.191658L-99.313544 89.180973L-99.388645 89.165009L-99.462449 89.143846L-99.534598 89.117586L-99.604739 89.086358L-99.672531 89.050312L-99.737643 89.009625L-99.799758 88.964496L-99.858574 88.915143L-99.913805 88.861808L-99.96518 88.80475L-100.01244 88.744248L-100.05538 88.680595L-100.09377 88.614103L-100.12743 88.545094L-100.15619 88.473906L-100.17991 88.400885L-100.19849 88.326387L-100.21182 88.250775L-100.21985 88.174416L-100.22253 88.097684L-100.21985 88.020952L-100.21182 87.944594L-100.19849 87.868981L-100.17991 87.794483L-100.15619 87.721462L-100.12743 87.650274L-100.09377 87.581265L-100.05538 87.514773L-100.01244 87.45112L-99.96518 87.390618L-99.913805 87.33356L-99.858574 87.280225L-99.799758 87.230872L-99.737643 87.185743L-99.672531 87.145056L-99.604739 87.109011L-99.534598 87.077782L-99.462449 87.051522L-99.388645 87.030359L-99.313544 87.014396L-99.237512 87.00371L-99.16092 86.998354L-99.084141 86.998354L-99.007549 87.00371L-98.931518 87.014396L-98.856417 87.030359L-98.782612 87.051522L-98.710463 87.077782L-98.640322 87.109011L-98.572531 87.145056L-98.507419 87.185743L-98.445303 87.230872L-98.386487 87.280225L-98.331257 87.33356L-98.279882 87.390618L-98.232612 87.45112L-98.189678 87.514773L-98.151288 87.581265L-98.117631 87.650274L-98.088869 87.721462L-98.065143 87.794483L-98.046568 87.868981L-98.033236 87.944594L-98.022531 88.097684" stroke="#000000" stroke-width="0.077507435" stroke-linecap="round" fill="none" />
            <path d="M-27.064737 66.892835L-26.71136 66.742836L-26.348381 66.617852L-25.977567 66.518493L-25.600726 66.445242L-24.740336 66.377528" stroke="#000000" stroke-width="0.077507435" stroke-linecap="round" fill="none" />
            <path d="M-106.09675 10.52187L-106.26858 10.865165L-106.46393 11.195639L-106.68186 11.51168L-106.9213 11.81175L-107.18109 12.094386L-107.45997 12.358212L-107.75657 12.601941L-108.06944 12.824387L-108.39708 13.024466L-108.82106 13.239878" stroke="#000000" stroke-width="0.077507435" stroke-linecap="round" fill="none" />
            <path d="M-96.472186 -10.511246L-96.300362 -10.854542L-96.105011 -11.185015L-95.887083 -11.501057L-95.64764 -11.801126L-95.387848 -12.083763L-95.108973 -12.347588L-94.780907 -12.615207" stroke="#000000" stroke-width="0.077507435" stroke-linecap="round" fill="none" />
            <path d="M-41.981448 -52.402453L-41.66698 -52.622646L-41.337919 -52.820366L-40.995866 -52.994651L-40.642489 -53.14465L-40.27951 -53.269634L-39.908696 -53.368993L-39.531855 -53.442244L-38.671466 -53.509958" stroke="#000000" stroke-width="0.077507435" stroke-linecap="round" fill="none" />
            <path d="M44.204745 -186.75225L44.588405 -186.73885L44.970197 -186.69873L45.348259 -186.63206L45.72075 -186.53919L46.085855 -186.42056L46.441796 -186.27675L46.786838 -186.10846L47.514727 -185.64475" stroke="#000000" stroke-width="0.077507435" stroke-linecap="round" fill="none" />
            <path d="M100.31418 -145.8575L100.61252 -145.61591L100.89329 -145.35409L101.1551 -145.07333L101.39669 -144.77499L101.61689 -144.46052L101.81461 -144.13146L102.00546 -143.75354" stroke="#000000" stroke-width="0.077507435" stroke-linecap="round" fill="none" />
            <path d="M114.35434 -120.00241L114.01065 -120.17344L113.67972 -120.36803L113.36318 -120.58522L113.06255 -120.82397L112.77932 -121.08311L112.51485 -121.36137L112.27043 -121.65741L112.04726 -121.96977L111.84643 -122.29694L111.63003 -122.72042" stroke="#000000" stroke-width="0.077507435" stroke-linecap="round" fill="none" />
            <path d="M30.273615 -66.864768L30.657276 -66.85137L31.039067 -66.811243L31.417129 -66.74458L31.789621 -66.651707L32.598015 -66.349461" stroke="#000000" stroke-width="0.077507435" stroke-linecap="round" fill="none" />
            <path d="M105.75581 -45.144612L105.75313 -45.06788L105.7451 -44.991522L105.73177 -44.915909L105.71319 -44.841411L105.68947 -44.76839L105.66071 -44.697202L105.62705 -44.628193L105.58866 -44.561701L105.54572 -44.498048L105.49845 -44.437546L105.44708 -44.380488L105.39185 -44.327153L105.33303 -44.2778L105.27092 -44.232671L105.20581 -44.191984L105.13801 -44.155939L105.06787 -44.12471L104.99572 -44.09845L104.92192 -44.077287L104.84682 -44.061323L104.77079 -44.050638L104.69419 -44.045282L104.61742 -44.045282L104.54082 -44.050638L104.46479 -44.061323L104.38969 -44.077287L104.31589 -44.09845L104.24374 -44.12471L104.1736 -44.155939L104.10581 -44.191984L104.04069 -44.232671L103.97858 -44.2778L103.91976 -44.327153L103.86453 -44.380488L103.81316 -44.437546L103.76589 -44.498048L103.72295 -44.561701L103.68456 -44.628193L103.65091 -44.697202L103.62214 -44.76839L103.59842 -44.841411L103.57984 -44.915909L103.56651 -44.991522L103.55848 -45.06788L103.55581 -45.144612L103.55848 -45.221344L103.56651 -45.297702L103.57984 -45.373315L103.59842 -45.447813L103.62214 -45.520834L103.65091 -45.592022L103.68456 -45.661031L103.72295 -45.727523L103.76589 -45.791176L103.81316 -45.851678L103.86453 -45.908736L103.91976 -45.962071L103.97858 -46.011424L104.04069 -46.056553L104.10581 -46.09724L104.1736 -46.133285L104.24374 -46.164514L104.31589 -46.190774L104.38969 -46.211937L104.46479 -46.227901L104.54082 -46.238586L104.61742 -46.243942L104.69419 -46.243942L104.77079 -46.238586L104.84682 -46.227901L104.92192 -46.211937L104.99572 -46.190774L105.06787 -46.164514L105.13801 -46.133285L105.20581 -46.09724L105.27092 -46.056553L105.33303 -46.011424L105.39185 -45.962071L105.44708 -45.908736L105.49845 -45.851678L105.54572 -45.791176L105.58866 -45.727523L105.62705 -45.661031L105.66071 -45.592022L105.68947 -45.520834L105.71319 -45.447813L105.73177 -45.373315L105.7451 -45.297702L105.75581 -45.144612" stroke="#000000" stroke-width="0.077507435" stroke-linecap="round" fill="none" />
            <path d="M25.693498 -72.364768L25.690818 -72.288036L25.682793 -72.211678L25.66946 -72.136065L25.650886 -72.061567L25.62716 -71.988546L25.598398 -71.917358L25.56474 -71.848349L25.526351 -71.781857L25.483416 -71.718204L25.436147 -71.657702L25.384772 -71.600644L25.329541 -71.547309L25.270725 -71.497956L25.20861 -71.452827L25.143498 -71.41214L25.075706 -71.376095L25.005565 -71.344866L24.933416 -71.318606L24.859612 -71.297443L24.784511 -71.281479L24.708479 -71.270794L24.631887 -71.265438L24.555108 -71.265438L24.478516 -71.270794L24.402485 -71.281479L24.327384 -71.297443L24.253579 -71.318606L24.18143 -71.344866L24.111289 -71.376095L24.043498 -71.41214L23.978386 -71.452827L23.91627 -71.497956L23.857454 -71.547309L23.802224 -71.600644L23.750849 -71.657702L23.703579 -71.718204L23.660645 -71.781857L23.622255 -71.848349L23.588598 -71.917358L23.559836 -71.988546L23.53611 -72.061567L23.517535 -72.136065L23.504203 -72.211678L23.496177 -72.288036L23.493498 -72.364768L23.496177 -72.4415L23.504203 -72.517858L23.517535 -72.593471L23.53611 -72.667969L23.559836 -72.74099L23.588598 -72.812178L23.622255 -72.881187L23.660645 -72.947679L23.703579 -73.011332L23.750849 -73.071834L23.802224 -73.128892L23.857454 -73.182227L23.91627 -73.23158L23.978386 -73.276709L24.043498 -73.317396L24.111289 -73.353441L24.18143 -73.38467L24.253579 -73.41093L24.327384 -73.432093L24.402485 -73.448057L24.478516 -73.458742L24.555108 -73.464098L24.631887 -73.464098L24.708479 -73.458742L24.784511 -73.448057L24.859612 -73.432093L24.933416 -73.41093L25.005565 -73.38467L25.075706 -73.353441L25.143498 -73.317396L25.20861 -73.276709L25.270725 -73.23158L25.329541 -73.182227L25.384772 -73.128892L25.436147 -73.071834L25.483416 -73.011332L25.526351 -72.947679L25.56474 -72.881187L25.598398 -72.812178L25.62716 -72.74099L25.650886 -72.667969L25.66946 -72.593471L25.682793 -72.517858L25.693498 -72.364768" stroke="#000000" stroke-width="0.077507435" stroke-linecap="round" fill="none" />
            <path d="M108.29726 -117.21533L108.29458 -117.1386L108.28655 -117.06224L108.27322 -116.98663L108.25465 -116.91213L108.23092 -116.83911L108.20216 -116.76792L108.1685 -116.69891L108.13011 -116.63242L108.08718 -116.56877L108.03991 -116.50827L107.98853 -116.45121L107.9333 -116.39787L107.87449 -116.34852L107.81237 -116.30339L107.74726 -116.2627L107.67947 -116.22666L107.60933 -116.19543L107.53718 -116.16917L107.46337 -116.14801L107.38827 -116.13204L107.31224 -116.12136L107.23565 -116.116L107.15887 -116.116L107.08228 -116.12136L107.00625 -116.13204L106.93114 -116.14801L106.85734 -116.16917L106.78519 -116.19543L106.71505 -116.22666L106.64726 -116.2627L106.58215 -116.30339L106.52003 -116.34852L106.46122 -116.39787L106.40599 -116.45121L106.35461 -116.50827L106.30734 -116.56877L106.26441 -116.63242L106.22602 -116.69891L106.19236 -116.76792L106.1636 -116.83911L106.13987 -116.91213L106.1213 -116.98663L106.10796 -117.06224L106.09994 -117.1386L106.09726 -117.21533L106.09994 -117.29206L106.10796 -117.36842L106.1213 -117.44403L106.13987 -117.51853L106.1636 -117.59155L106.19236 -117.66274L106.22602 -117.73175L106.26441 -117.79824L106.30734 -117.8619L106.35461 -117.9224L106.40599 -117.97946L106.46122 -118.03279L106.52003 -118.08214L106.58215 -118.12727L106.64726 -118.16796L106.71505 -118.20401L106.78519 -118.23523L106.85734 -118.26149L106.93114 -118.28266L107.00625 -118.29862L107.08228 -118.30931L107.15887 -118.31466L107.23565 -118.31466L107.31224 -118.30931L107.38827 -118.29862L107.46337 -118.28266L107.53718 -118.26149L107.60933 -118.23523L107.67947 -118.20401L107.74726 -118.16796L107.81237 -118.12727L107.87449 -118.08214L107.9333 -118.03279L107.98853 -117.97946L108.03991 -117.9224L108.08718 -117.8619L108.13011 -117.79824L108.1685 -117.73175L108.20216 -117.66274L108.23092 -117.59155L108.25465 -117.51853L108.27322 -117.44403L108.28655 -117.36842L108.29726 -117.21533" stroke="#000000" stroke-width="0.077507435" stroke-linecap="round" fill="none" />
            <path d="M42.240791 -146.94557L42.238112 -146.86884L42.230086 -146.79248L42.216754 -146.71687L42.198179 -146.64237L42.174453 -146.56935L42.145691 -146.49816L42.112034 -146.42915L42.073644 -146.36266L42.03071 -146.29901L41.98344 -146.23851L41.932065 -146.18145L41.876835 -146.12811L41.818019 -146.07876L41.755904 -146.03363L41.690791 -145.99295L41.623 -145.9569L41.552859 -145.92567L41.48071 -145.89941L41.406905 -145.87825L41.331804 -145.86228L41.255773 -145.8516L41.179181 -145.84624L41.102402 -145.84624L41.02581 -145.8516L40.949778 -145.86228L40.874677 -145.87825L40.800873 -145.89941L40.728724 -145.92567L40.658583 -145.9569L40.590791 -145.99295L40.525679 -146.03363L40.463564 -146.07876L40.404748 -146.12811L40.349518 -146.18145L40.298142 -146.23851L40.250873 -146.29901L40.207938 -146.36266L40.169549 -146.42915L40.135891 -146.49816L40.107129 -146.56935L40.083403 -146.64237L40.064829 -146.71687L40.051496 -146.79248L40.043471 -146.86884L40.040791 -146.94557L40.043471 -147.02231L40.051496 -147.09866L40.064829 -147.17428L40.083403 -147.24877L40.107129 -147.3218L40.135891 -147.39298L40.169549 -147.46199L40.207938 -147.52848L40.250873 -147.59214L40.298142 -147.65264L40.349518 -147.7097L40.404748 -147.76303L40.463564 -147.81239L40.525679 -147.85751L40.590791 -147.8982L40.658583 -147.93425L40.728724 -147.96548L40.800873 -147.99174L40.874677 -148.0129L40.949778 -148.02886L41.02581 -148.03955L41.102402 -148.0449L41.179181 -148.0449L41.255773 -148.03955L41.331804 -148.02886L41.406905 -148.0129L41.48071 -147.99174L41.552859 -147.96548L41.623 -147.93425L41.690791 -147.8982L41.755904 -147.85751L41.818019 -147.81239L41.876835 -147.76303L41.932065 -147.7097L41.98344 -147.65264L42.03071 -147.59214L42.073644 -147.52848L42.112034 -147.46199L42.145691 -147.39298L42.174453 -147.3218L42.198179 -147.24877L42.216754 -147.17428L42.230086 -147.09866L42.240791 -146.94557" stroke="#000000" stroke-width="0.077507435" stroke-linecap="round" fill="none" />
            <path d="M91.086069 -39.644612L90.702409 -39.65801L90.320617 -39.698137L89.942555 -39.7648L89.570064 -39.857673L88.761669 -40.159919" stroke="#000000" stroke-width="0.077507435" stroke-linecap="round" fill="none" />
            <path d="M119.83349 -42.820212L119.65921 -42.478159L119.46149 -42.149097L119.24129 -41.834629L118.9997 -41.536287L118.73789 -41.255525L118.45712 -40.993709L118.15878 -40.752117L117.84431 -40.531924L117.51525 -40.334203L117.1732 -40.159919L116.81982 -40.00992L116.45684 -39.884936L116.08603 -39.785576L115.70919 -39.712326L114.8488 -39.644612" stroke="#000000" stroke-width="0.077507435" stroke-linecap="round" fill="none" />
            <path d="M146.22165 -99.409809L146.37165 -99.763186L146.49664 -100.12616L146.596 -100.49697L146.66925 -100.87382L146.71603 -101.25485L146.73612 -101.63822L146.72942 -102.02205L146.69597 -102.40449L146.63591 -102.78365L146.54955 -103.15771L146.43731 -103.52483L146.29974 -103.88323L146.1375 -104.23115L145.95138 -104.56691L145.7423 -104.88888L145.51126 -105.19547L145.25941 -105.4852L144.98795 -105.75665L144.69822 -106.00851L144.39163 -106.23954L144.06967 -106.44863L143.51392 -106.74075" stroke="#000000" stroke-width="0.077507435" stroke-linecap="round" fill="none" />
            <path d="M-141.03466 -99.409809L-141.18466 -99.763186L-141.30964 -100.12616L-141.409 -100.49697L-141.48225 -100.87382L-141.52904 -101.25485L-141.54913 -101.63822L-141.54243 -102.02205L-141.50897 -102.40449L-141.44891 -102.78365L-141.36256 -103.15771L-141.25032 -103.52483L-141.11274 -103.88323L-140.9505 -104.23115L-140.76439 -104.56691L-140.5553 -104.88888L-140.32427 -105.19547L-140.07241 -105.4852L-139.80096 -105.75665L-139.51123 -106.00851L-139.20464 -106.23954L-138.88267 -106.44863L-138.32692 -106.74075" stroke="#000000" stroke-width="0.077507435" stroke-linecap="round" fill="none" />
            <path d="M-109.6618 -39.644612L-110.04546 -39.65801L-110.42725 -39.698137L-110.80532 -39.7648L-111.17781 -39.857673L-111.54291 -39.976303L-111.89885 -40.120112L-112.2439 -40.2884L-112.57636 -40.480347L-112.89462 -40.695018L-113.19713 -40.931368L-113.48242 -41.188243L-113.7491 -41.464394L-113.99586 -41.758474L-114.22151 -42.069051L-114.6465 -42.820212" stroke="#000000" stroke-width="0.077507435" stroke-linecap="round" fill="none" />
            <path d="M-83.574672 -40.159919L-83.928049 -40.00992L-84.291028 -39.884936L-84.661842 -39.785576L-85.038683 -39.712326L-85.899073 -39.644612" stroke="#000000" stroke-width="0.077507435" stroke-linecap="round" fill="none" />
            <path d="M-34.853795 -146.94557L-34.856474 -146.86884L-34.8645 -146.79248L-34.877832 -146.71687L-34.896407 -146.64237L-34.920133 -146.56935L-34.948895 -146.49816L-34.982553 -146.42915L-35.020942 -146.36266L-35.063876 -146.29901L-35.111146 -146.23851L-35.162521 -146.18145L-35.217751 -146.12811L-35.276567 -146.07876L-35.338683 -146.03363L-35.403795 -145.99295L-35.471587 -145.9569L-35.541728 -145.92567L-35.613876 -145.89941L-35.687681 -145.87825L-35.762782 -145.86228L-35.838814 -145.8516L-35.915405 -145.84624L-35.992184 -145.84624L-36.068776 -145.8516L-36.144808 -145.86228L-36.219909 -145.87825L-36.293714 -145.89941L-36.365862 -145.92567L-36.436003 -145.9569L-36.503795 -145.99295L-36.568907 -146.03363L-36.631023 -146.07876L-36.689839 -146.12811L-36.745069 -146.18145L-36.796444 -146.23851L-36.843714 -146.29901L-36.886648 -146.36266L-36.925037 -146.42915L-36.958695 -146.49816L-36.987457 -146.56935L-37.011183 -146.64237L-37.029757 -146.71687L-37.04309 -146.79248L-37.051115 -146.86884L-37.053795 -146.94557L-37.051115 -147.02231L-37.04309 -147.09866L-37.029757 -147.17428L-37.011183 -147.24877L-36.987457 -147.3218L-36.958695 -147.39298L-36.925037 -147.46199L-36.886648 -147.52848L-36.843714 -147.59214L-36.796444 -147.65264L-36.745069 -147.7097L-36.689839 -147.76303L-36.631023 -147.81239L-36.568907 -147.85751L-36.503795 -147.8982L-36.436003 -147.93425L-36.365862 -147.96548L-36.293714 -147.99174L-36.219909 -148.0129L-36.144808 -148.02886L-36.068776 -148.03955L-35.992184 -148.0449L-35.915405 -148.0449L-35.838814 -148.03955L-35.762782 -148.02886L-35.687681 -148.0129L-35.613876 -147.99174L-35.541728 -147.96548L-35.471587 -147.93425L-35.403795 -147.8982L-35.338683 -147.85751L-35.276567 -147.81239L-35.217751 -147.76303L-35.162521 -147.7097L-35.111146 -147.65264L-35.063876 -147.59214L-35.020942 -147.52848L-34.982553 -147.46199L-34.948895 -147.39298L-34.920133 -147.3218L-34.896407 -147.24877L-34.877832 -147.17428L-34.8645 -147.09866L-34.853795 -146.94557" stroke="#000000" stroke-width="0.077507435" stroke-linecap="round" fill="none" />
            <path d="M-100.91026 -117.21533L-100.91294 -117.1386L-100.92097 -117.06224L-100.9343 -116.98663L-100.95287 -116.91213L-100.9766 -116.83911L-101.00536 -116.76792L-101.03902 -116.69891L-101.07741 -116.63242L-101.12034 -116.56877L-101.16761 -116.50827L-101.21899 -116.45121L-101.27422 -116.39787L-101.33303 -116.34852L-101.39515 -116.30339L-101.46026 -116.2627L-101.52805 -116.22666L-101.5982 -116.19543L-101.67034 -116.16917L-101.74415 -116.14801L-101.81925 -116.13204L-101.89528 -116.12136L-101.97187 -116.116L-102.04865 -116.116L-102.12524 -116.12136L-102.20128 -116.13204L-102.27638 -116.14801L-102.35018 -116.16917L-102.42233 -116.19543L-102.49247 -116.22666L-102.56026 -116.2627L-102.62537 -116.30339L-102.68749 -116.34852L-102.74631 -116.39787L-102.80154 -116.45121L-102.85291 -116.50827L-102.90018 -116.56877L-102.94312 -116.63242L-102.9815 -116.69891L-103.01516 -116.76792L-103.04392 -116.83911L-103.06765 -116.91213L-103.08622 -116.98663L-103.09956 -117.06224L-103.10758 -117.1386L-103.11026 -117.21533L-103.10758 -117.29206L-103.09956 -117.36842L-103.08622 -117.44403L-103.06765 -117.51853L-103.04392 -117.59155L-103.01516 -117.66274L-102.9815 -117.73175L-102.94312 -117.79824L-102.90018 -117.8619L-102.85291 -117.9224L-102.80154 -117.97946L-102.74631 -118.03279L-102.68749 -118.08214L-102.62537 -118.12727L-102.56026 -118.16796L-102.49247 -118.20401L-102.42233 -118.23523L-102.35018 -118.26149L-102.27638 -118.28266L-102.20128 -118.29862L-102.12524 -118.30931L-102.04865 -118.31466L-101.97187 -118.31466L-101.89528 -118.30931L-101.81925 -118.29862L-101.74415 -118.28266L-101.67034 -118.26149L-101.5982 -118.23523L-101.52805 -118.20401L-101.46026 -118.16796L-101.39515 -118.12727L-101.33303 -118.08214L-101.27422 -118.03279L-101.21899 -117.97946L-101.16761 -117.9224L-101.12034 -117.8619L-101.07741 -117.79824L-101.03902 -117.73175L-101.00536 -117.66274L-100.9766 -117.59155L-100.95287 -117.51853L-100.9343 -117.44403L-100.92097 -117.36842L-100.91026 -117.21533" stroke="#000000" stroke-width="0.077507435" stroke-linecap="round" fill="none" />
            <path d="M-18.306501 -72.364768L-18.309181 -72.288036L-18.317206 -72.211678L-18.330539 -72.136065L-18.349113 -72.061567L-18.372839 -71.988546L-18.401601 -71.917358L-18.435259 -71.848349L-18.473648 -71.781857L-18.516583 -71.718204L-18.563852 -71.657702L-18.615227 -71.600644L-18.670458 -71.547309L-18.729274 -71.497956L-18.791389 -71.452827L-18.856501 -71.41214L-18.924293 -71.376095L-18.994434 -71.344866L-19.066583 -71.318606L-19.140387 -71.297443L-19.215488 -71.281479L-19.29152 -71.270794L-19.368112 -71.265438L-19.444891 -71.265438L-19.521483 -71.270794L-19.597514 -71.281479L-19.672615 -71.297443L-19.74642 -71.318606L-19.818569 -71.344866L-19.88871 -71.376095L-19.956501 -71.41214L-20.021613 -71.452827L-20.083729 -71.497956L-20.142545 -71.547309L-20.197775 -71.600644L-20.24915 -71.657702L-20.29642 -71.718204L-20.339354 -71.781857L-20.377744 -71.848349L-20.411401 -71.917358L-20.440163 -71.988546L-20.463889 -72.061567L-20.482464 -72.136065L-20.495796 -72.211678L-20.503822 -72.288036L-20.506501 -72.364768L-20.503822 -72.4415L-20.495796 -72.517858L-20.482464 -72.593471L-20.463889 -72.667969L-20.440163 -72.74099L-20.411401 -72.812178L-20.377744 -72.881187L-20.339354 -72.947679L-20.29642 -73.011332L-20.24915 -73.071834L-20.197775 -73.128892L-20.142545 -73.182227L-20.083729 -73.23158L-20.021613 -73.276709L-19.956501 -73.317396L-19.88871 -73.353441L-19.818569 -73.38467L-19.74642 -73.41093L-19.672615 -73.432093L-19.597514 -73.448057L-19.521483 -73.458742L-19.444891 -73.464098L-19.368112 -73.464098L-19.29152 -73.458742L-19.215488 -73.448057L-19.140387 -73.432093L-19.066583 -73.41093L-18.994434 -73.38467L-18.924293 -73.353441L-18.856501 -73.317396L-18.791389 -73.276709L-18.729274 -73.23158L-18.670458 -73.182227L-18.615227 -73.128892L-18.563852 -73.071834L-18.516583 -73.011332L-18.473648 -72.947679L-18.435259 -72.881187L-18.401601 -72.812178L-18.372839 -72.74099L-18.349113 -72.667969L-18.330539 -72.593471L-18.317206 -72.517858L-18.306501 -72.364768" stroke="#000000" stroke-width="0.077507435" stroke-linecap="round" fill="none" />
            <path d="M-98.368813 -45.144612L-98.371493 -45.06788L-98.379518 -44.991522L-98.392851 -44.915909L-98.411425 -44.841411L-98.435151 -44.76839L-98.463913 -44.697202L-98.497571 -44.628193L-98.53596 -44.561701L-98.578894 -44.498048L-98.626164 -44.437546L-98.677539 -44.380488L-98.732769 -44.327153L-98.791586 -44.2778L-98.853701 -44.232671L-98.918813 -44.191984L-98.986605 -44.155939L-99.056746 -44.12471L-99.128894 -44.09845L-99.202699 -44.077287L-99.2778 -44.061323L-99.353832 -44.050638L-99.430424 -44.045282L-99.507203 -44.045282L-99.583794 -44.050638L-99.659826 -44.061323L-99.734927 -44.077287L-99.808732 -44.09845L-99.88088 -44.12471L-99.951021 -44.155939L-100.01881 -44.191984L-100.08392 -44.232671L-100.14604 -44.2778L-100.20485 -44.327153L-100.26008 -44.380488L-100.31146 -44.437546L-100.35873 -44.498048L-100.40166 -44.561701L-100.44005 -44.628193L-100.47371 -44.697202L-100.50247 -44.76839L-100.5262 -44.841411L-100.54477 -44.915909L-100.5581 -44.991522L-100.56613 -45.06788L-100.56881 -45.144612L-100.56613 -45.221344L-100.5581 -45.297702L-100.54477 -45.373315L-100.5262 -45.447813L-100.50247 -45.520834L-100.47371 -45.592022L-100.44005 -45.661031L-100.40166 -45.727523L-100.35873 -45.791176L-100.31146 -45.851678L-100.26008 -45.908736L-100.20485 -45.962071L-100.14604 -46.011424L-100.08392 -46.056553L-100.01881 -46.09724L-99.951021 -46.133285L-99.88088 -46.164514L-99.808732 -46.190774L-99.734927 -46.211937L-99.659826 -46.227901L-99.583794 -46.238586L-99.507203 -46.243942L-99.430424 -46.243942L-99.353832 -46.238586L-99.2778 -46.227901L-99.202699 -46.211937L-99.128894 -46.190774L-99.056746 -46.164514L-98.986605 -46.133285L-98.918813 -46.09724L-98.853701 -46.056553L-98.791586 -46.011424L-98.732769 -45.962071L-98.677539 -45.908736L-98.626164 -45.851678L-98.578894 -45.791176L-98.53596 -45.727523L-98.497571 -45.661031L-98.463913 -45.592022L-98.435151 -45.520834L-98.411425 -45.447813L-98.392851 -45.373315L-98.379518 -45.297702L-98.368813 -45.144612" stroke="#000000" stroke-width="0.077507435" stroke-linecap="round" fill="none" />
            <path d="M-27.411019 -66.349461L-27.057642 -66.49946L-26.694663 -66.624444L-26.323849 -66.723803L-25.947008 -66.797054L-25.086619 -66.864768" stroke="#000000" stroke-width="0.077507435" stroke-linecap="round" fill="none" />
            <path d="M-106.44304 -122.72042L-106.61486 -122.37713L-106.81021 -122.04665L-107.02814 -121.73061L-107.26758 -121.43054L-107.52737 -121.14791L-107.80625 -120.88408L-108.10285 -120.64035L-108.41573 -120.4179L-108.74336 -120.21783L-109.16734 -120.00241" stroke="#000000" stroke-width="0.077507435" stroke-linecap="round" fill="none" />
            <path d="M-96.818468 -143.75354L-96.646645 -144.09683L-96.451293 -144.42731L-96.233365 -144.74335L-95.993922 -145.04342L-95.73413 -145.32606L-95.455255 -145.58988L-95.127189 -145.8575" stroke="#000000" stroke-width="0.077507435" stroke-linecap="round" fill="none" />
            <path d="M-42.327731 -185.64475L-42.013263 -185.86494L-41.684201 -186.06266L-41.342149 -186.23694L-40.988772 -186.38694L-40.625793 -186.51193L-40.254979 -186.61129L-39.878138 -186.68454L-39.017748 -186.75225" stroke="#000000" stroke-width="0.077507435" stroke-linecap="round" fill="none" />
            <path d="M120.17977 90.422085L146.56794 33.832487" stroke="#000000" stroke-width="0.077507435" stroke-linecap="round" fill="none" />
            <path d="M89.107951 93.082377L32.944298 66.892835" stroke="#000000" stroke-width="0.077507435" stroke-linecap="round" fill="none" />
            <path d="M143.8602 26.501544L114.70062 13.239878" stroke="#000000" stroke-width="0.077507435" stroke-linecap="round" fill="none" />
            <path d="M47.86101 -52.402453L100.66046 -12.615207" stroke="#000000" stroke-width="0.077507435" stroke-linecap="round" fill="none" />
            <path d="M-38.671466 -53.509958L44.551027 -53.509958" stroke="#000000" stroke-width="0.077507435" stroke-linecap="round" fill="none" />
            <path d="M-24.740336 66.377528L30.619898 66.377528" stroke="#000000" stroke-width="0.077507435" stroke-linecap="round" fill="none" />
            <path d="M91.432352 93.597684L115.19508 93.597684" stroke="#000000" stroke-width="0.077507435" stroke-linecap="round" fill="none" />
            <path d="M102.35174 -10.511246L111.97632 10.52187" stroke="#000000" stroke-width="0.077507435" stroke-linecap="round" fill="none" />
            <path d="M-96.472185 -10.511246L-106.09675 10.52187" stroke="#000000" stroke-width="0.077507435" stroke-linecap="round" fill="none" />
            <path d="M-85.55279 93.597684L-109.31552 93.597684" stroke="#000000" stroke-width="0.077507435" stroke-linecap="round" fill="none" />
            <path d="M-41.981448 -52.402453L-94.780907 -12.615207" stroke="#000000" stroke-width="0.077507435" stroke-linecap="round" fill="none" />
            <path d="M-137.98064 26.501544L-108.82106 13.239878" stroke="#000000" stroke-width="0.077507435" stroke-linecap="round" fill="none" />
            <path d="M-83.22839 93.082377L-27.064737 66.892835" stroke="#000000" stroke-width="0.077507435" stroke-linecap="round" fill="none" />
            <path d="M-114.30021 90.422085L-140.68838 33.832487" stroke="#000000" stroke-width="0.077507435" stroke-linecap="round" fill="none" />
            <path d="M84.393712 -70.932219L98.350852 -64.423898" stroke="#000000" stroke-width="0.077507435" stroke-linecap="round" fill="none" />
            <path d="M106.68342 -69.279043L120.64056 -62.770722" stroke="#000000" stroke-width="0.077507435" stroke-linecap="round" fill="none" />
            <path d="M106.68342 -69.279043L100.1751 -55.321903" stroke="#000000" stroke-width="0.077507435" stroke-linecap="round" fill="none" />
            <path d="M100.1751 -55.321903L114.13224 -48.813582" stroke="#000000" stroke-width="0.077507435" stroke-linecap="round" fill="none" />
            <path d="M120.64056 -62.770722L114.13224 -48.813582" stroke="#000000" stroke-width="0.077507435" stroke-linecap="round" fill="none" />
            <path d="M115.51614 -88.220876L129.47328 -81.712555" stroke="#000000" stroke-width="0.077507435" stroke-linecap="round" fill="none" />
            <path d="M115.51614 -88.220876L109.00782 -74.263736" stroke="#000000" stroke-width="0.077507435" stroke-linecap="round" fill="none" />
            <path d="M109.00782 -74.263736L122.96496 -67.755415" stroke="#000000" stroke-width="0.077507435" stroke-linecap="round" fill="none" />
            <path d="M129.47328 -81.712555L122.96496 -67.755415" stroke="#000000" stroke-width="0.077507435" stroke-linecap="round" fill="none" />
            <path d="M138.65575 -100.49129L124.63743 -106.86677" stroke="#000000" stroke-width="0.077507435" stroke-linecap="round" fill="none" />
            <path d="M138.65575 -100.49129L132.14743 -86.534159" stroke="#000000" stroke-width="0.077507435" stroke-linecap="round" fill="none" />
            <path d="M132.14743 -86.534159L118.19091 -93.042188" stroke="#000000" stroke-width="0.077507435" stroke-linecap="round" fill="none" />
            <path d="M124.63743 -106.86677L118.19091 -93.042188" stroke="#000000" stroke-width="0.077507435" stroke-linecap="round" fill="none" />
            <path d="M84.393712 -70.932219L77.885391 -56.975079" stroke="#000000" stroke-width="0.077507435" stroke-linecap="round" fill="none" />
            <path d="M77.885391 -56.975079L91.842531 -50.466758" stroke="#000000" stroke-width="0.077507435" stroke-linecap="round" fill="none" />
            <path d="M98.350852 -64.423898L91.842531 -50.466758" stroke="#000000" stroke-width="0.077507435" stroke-linecap="round" fill="none" />
            <path d="M93.226434 -89.874052L107.18357 -83.365731" stroke="#000000" stroke-width="0.077507435" stroke-linecap="round" fill="none" />
            <path d="M93.226434 -89.874052L86.718113 -75.916912" stroke="#000000" stroke-width="0.077507435" stroke-linecap="round" fill="none" />
            <path d="M86.718113 -75.916912L100.67525 -69.408591" stroke="#000000" stroke-width="0.077507435" stroke-linecap="round" fill="none" />
            <path d="M107.18357 -83.365731L100.67525 -69.408591" stroke="#000000" stroke-width="0.077507435" stroke-linecap="round" fill="none" />
            <path d="M116.04484 -102.30756L102.0877 -108.81588" stroke="#000000" stroke-width="0.077507435" stroke-linecap="round" fill="none" />
            <path d="M116.04484 -102.30756L109.53652 -88.350424" stroke="#000000" stroke-width="0.077507435" stroke-linecap="round" fill="none" />
            <path d="M109.53652 -88.350424L95.579384 -94.858745" stroke="#000000" stroke-width="0.077507435" stroke-linecap="round" fill="none" />
            <path d="M102.0877 -108.81588L95.579384 -94.858745" stroke="#000000" stroke-width="0.077507435" stroke-linecap="round" fill="none" />
            <path d="M64.208031 -77.097499L78.165171 -70.589177" stroke="#000000" stroke-width="0.077507435" stroke-linecap="round" fill="none" />
            <path d="M64.208031 -77.097499L57.69971 -63.140359" stroke="#000000" stroke-width="0.077507435" stroke-linecap="round" fill="none" />
            <path d="M57.69971 -63.140359L71.656849 -56.632037" stroke="#000000" stroke-width="0.077507435" stroke-linecap="round" fill="none" />
            <path d="M78.165171 -70.589177L71.656849 -56.632037" stroke="#000000" stroke-width="0.077507435" stroke-linecap="round" fill="none" />
            <path d="M73.040752 -96.039331L86.997892 -89.53101" stroke="#000000" stroke-width="0.077507435" stroke-linecap="round" fill="none" />
            <path d="M73.040752 -96.039331L66.532431 -82.082191" stroke="#000000" stroke-width="0.077507435" stroke-linecap="round" fill="none" />
            <path d="M66.532431 -82.082191L80.489571 -75.57387" stroke="#000000" stroke-width="0.077507435" stroke-linecap="round" fill="none" />
            <path d="M86.997892 -89.53101L80.489571 -75.57387" stroke="#000000" stroke-width="0.077507435" stroke-linecap="round" fill="none" />
            <path d="M96.208909 -108.30975L82.251769 -114.81807" stroke="#000000" stroke-width="0.077507435" stroke-linecap="round" fill="none" />
            <path d="M96.208909 -108.30975L89.700588 -94.352614" stroke="#000000" stroke-width="0.077507435" stroke-linecap="round" fill="none" />
            <path d="M89.700588 -94.352614L75.743448 -100.86093" stroke="#000000" stroke-width="0.077507435" stroke-linecap="round" fill="none" />
            <path d="M82.251769 -114.81807L75.743448 -100.86093" stroke="#000000" stroke-width="0.077507435" stroke-linecap="round" fill="none" />
            <path d="M46.510047 -88.597663L60.467187 -82.089341" stroke="#000000" stroke-width="0.077507435" stroke-linecap="round" fill="none" />
            <path d="M46.510047 -88.597663L40.001726 -74.640523" stroke="#000000" stroke-width="0.077507435" stroke-linecap="round" fill="none" />
            <path d="M40.001726 -74.640523L53.958866 -68.132202" stroke="#000000" stroke-width="0.077507435" stroke-linecap="round" fill="none" />
            <path d="M60.467187 -82.089341L53.958866 -68.132202" stroke="#000000" stroke-width="0.077507435" stroke-linecap="round" fill="none" />
            <path d="M55.342769 -107.53949L69.299908 -101.03117" stroke="#000000" stroke-width="0.077507435" stroke-linecap="round" fill="none" />
            <path d="M55.342769 -107.53949L48.834447 -93.582356" stroke="#000000" stroke-width="0.077507435" stroke-linecap="round" fill="none" />
            <path d="M48.834447 -93.582356L62.791587 -87.074034" stroke="#000000" stroke-width="0.077507435" stroke-linecap="round" fill="none" />
            <path d="M69.299908 -101.03117L62.791587 -87.074034" stroke="#000000" stroke-width="0.077507435" stroke-linecap="round" fill="none" />
            <path d="M78.510925 -119.80991L64.553786 -126.31823" stroke="#000000" stroke-width="0.077507435" stroke-linecap="round" fill="none" />
            <path d="M78.510925 -119.80991L72.002604 -105.85277" stroke="#000000" stroke-width="0.077507435" stroke-linecap="round" fill="none" />
            <path d="M72.002604 -105.85277L58.045464 -112.36109" stroke="#000000" stroke-width="0.077507435" stroke-linecap="round" fill="none" />
            <path d="M64.553786 -126.31823L58.045464 -112.36109" stroke="#000000" stroke-width="0.077507435" stroke-linecap="round" fill="none" />
            <path d="M28.901819 -100.2903L42.858959 -93.781988" stroke="#000000" stroke-width="0.077507435" stroke-linecap="round" fill="none" />
            <path d="M28.901819 -100.2903L22.393498 -86.333169" stroke="#000000" stroke-width="0.077507435" stroke-linecap="round" fill="none" />
            <path d="M22.393498 -86.333169L36.350638 -79.824848" stroke="#000000" stroke-width="0.077507435" stroke-linecap="round" fill="none" />
            <path d="M42.858959 -93.781988L36.350638 -79.824848" stroke="#000000" stroke-width="0.077507435" stroke-linecap="round" fill="none" />
            <path d="M38.112836 -119.06905L52.069976 -112.56073" stroke="#000000" stroke-width="0.077507435" stroke-linecap="round" fill="none" />
            <path d="M38.112836 -119.06905L31.604515 -105.11191" stroke="#000000" stroke-width="0.077507435" stroke-linecap="round" fill="none" />
            <path d="M31.604515 -105.11191L45.561655 -98.603592" stroke="#000000" stroke-width="0.077507435" stroke-linecap="round" fill="none" />
            <path d="M52.069976 -112.56073L45.561655 -98.603592" stroke="#000000" stroke-width="0.077507435" stroke-linecap="round" fill="none" />
            <path d="M60.902698 -131.50256L46.945558 -138.01088" stroke="#000000" stroke-width="0.077507435" stroke-linecap="round" fill="none" />
            <path d="M60.902698 -131.50256L54.394376 -117.54542" stroke="#000000" stroke-width="0.077507435" stroke-linecap="round" fill="none" />
            <path d="M54.394376 -117.54542L40.437236 -124.05374" stroke="#000000" stroke-width="0.077507435" stroke-linecap="round" fill="none" />
            <path d="M46.945558 -138.01088L40.437236 -124.05374" stroke="#000000" stroke-width="0.077507435" stroke-linecap="round" fill="none" />
            <path d="M58.659167 -161.66161L70.958154 -152.39366" stroke="#000000" stroke-width="0.077507435" stroke-linecap="round" fill="none" />
            <path d="M77.43461 -148.22887L91.39175 -141.72054" stroke="#000000" stroke-width="0.077507435" stroke-linecap="round" fill="none" />
            <path d="M77.43461 -148.22887L70.926205 -134.27154" stroke="#000000" stroke-width="0.077507435" stroke-linecap="round" fill="none" />
            <path d="M70.926205 -134.27154L84.883344 -127.76322" stroke="#000000" stroke-width="0.077507435" stroke-linecap="round" fill="none" />
            <path d="M91.39175 -141.72054L84.883344 -127.76322" stroke="#000000" stroke-width="0.077507435" stroke-linecap="round" fill="none" />
            <path d="M58.659167 -161.66161L49.391095 -149.36247" stroke="#000000" stroke-width="0.077507435" stroke-linecap="round" fill="none" />
            <path d="M49.391095 -149.36247L61.690082 -140.09451" stroke="#000000" stroke-width="0.077507435" stroke-linecap="round" fill="none" />
            <path d="M70.958154 -152.39366L61.690082 -140.09451" stroke="#000000" stroke-width="0.077507435" stroke-linecap="round" fill="none" />
            <path d="M43.468635 -179.05225L53.366658 -167.25441" stroke="#000000" stroke-width="0.077507435" stroke-linecap="round" fill="none" />
            <path d="M43.468635 -179.05225L31.661803 -169.15319" stroke="#000000" stroke-width="0.077507435" stroke-linecap="round" fill="none" />
            <path d="M31.661803 -169.15319L41.552822 -157.37516" stroke="#000000" stroke-width="0.077507435" stroke-linecap="round" fill="none" />
            <path d="M53.366658 -167.25441L41.552822 -157.37516" stroke="#000000" stroke-width="0.077507435" stroke-linecap="round" fill="none" />
            <path d="M119.83349 -42.820212L146.22165 -99.409809" stroke="#000000" stroke-width="0.077507435" stroke-linecap="round" fill="none" />
            <path d="M88.761669 -40.159919L32.598016 -66.349461" stroke="#000000" stroke-width="0.077507435" stroke-linecap="round" fill="none" />
            <path d="M143.51392 -106.74075L114.35434 -120.00241" stroke="#000000" stroke-width="0.077507435" stroke-linecap="round" fill="none" />
            <path d="M47.514727 -185.64475L100.31418 -145.8575" stroke="#000000" stroke-width="0.077507435" stroke-linecap="round" fill="none" />
            <path d="M-39.017748 -186.75225L44.204745 -186.75225" stroke="#000000" stroke-width="0.077507435" stroke-linecap="round" fill="none" />
            <path d="M-25.086619 -66.864768L30.273615 -66.864768" stroke="#000000" stroke-width="0.077507435" stroke-linecap="round" fill="none" />
            <path d="M91.086069 -39.644612L114.8488 -39.644612" stroke="#000000" stroke-width="0.077507435" stroke-linecap="round" fill="none" />
            <path d="M102.00546 -143.75354L111.63003 -122.72042" stroke="#000000" stroke-width="0.077507435" stroke-linecap="round" fill="none" />
            <path d="M-96.818468 -143.75354L-106.44304 -122.72042" stroke="#000000" stroke-width="0.077507435" stroke-linecap="round" fill="none" />
            <path d="M-85.899073 -39.644612L-109.6618 -39.644612" stroke="#000000" stroke-width="0.077507435" stroke-linecap="round" fill="none" />
            <path d="M-42.327731 -185.64475L-95.127189 -145.8575" stroke="#000000" stroke-width="0.077507435" stroke-linecap="round" fill="none" />
            <path d="M-138.32692 -106.74075L-109.16734 -120.00241" stroke="#000000" stroke-width="0.077507435" stroke-linecap="round" fill="none" />
            <path d="M-83.574672 -40.159919L-27.411019 -66.349461" stroke="#000000" stroke-width="0.077507435" stroke-linecap="round" fill="none" />
            <path d="M-114.6465 -42.820212L-141.03466 -99.409809" stroke="#000000" stroke-width="0.077507435" stroke-linecap="round" fill="none" />
            <path d="M-48.179662 -167.25441L-36.365826 -157.37516" stroke="#000000" stroke-width="0.077507435" stroke-linecap="round" fill="none" />
            <path d="M-26.474807 -169.15319L-36.365826 -157.37516" stroke="#000000" stroke-width="0.077507435" stroke-linecap="round" fill="none" />
            <path d="M-38.281638 -179.05225L-26.474807 -169.15319" stroke="#000000" stroke-width="0.077507435" stroke-linecap="round" fill="none" />
            <path d="M-38.281638 -179.05225L-48.179662 -167.25441" stroke="#000000" stroke-width="0.077507435" stroke-linecap="round" fill="none" />
            <path d="M-65.771157 -152.39366L-56.503086 -140.09451" stroke="#000000" stroke-width="0.077507435" stroke-linecap="round" fill="none" />
            <path d="M-44.204099 -149.36247L-56.503086 -140.09451" stroke="#000000" stroke-width="0.077507435" stroke-linecap="round" fill="none" />
            <path d="M-53.47217 -161.66161L-44.204099 -149.36247" stroke="#000000" stroke-width="0.077507435" stroke-linecap="round" fill="none" />
            <path d="M-86.204753 -141.72054L-79.696348 -127.76322" stroke="#000000" stroke-width="0.077507435" stroke-linecap="round" fill="none" />
            <path d="M-65.739208 -134.27154L-79.696348 -127.76322" stroke="#000000" stroke-width="0.077507435" stroke-linecap="round" fill="none" />
            <path d="M-72.247614 -148.22887L-65.739208 -134.27154" stroke="#000000" stroke-width="0.077507435" stroke-linecap="round" fill="none" />
            <path d="M-72.247614 -148.22887L-86.204753 -141.72054" stroke="#000000" stroke-width="0.077507435" stroke-linecap="round" fill="none" />
            <path d="M-53.47217 -161.66161L-65.771157 -152.39366" stroke="#000000" stroke-width="0.077507435" stroke-linecap="round" fill="none" />
            <path d="M-41.758561 -138.01088L-35.25024 -124.05374" stroke="#000000" stroke-width="0.077507435" stroke-linecap="round" fill="none" />
            <path d="M-49.20738 -117.54542L-35.25024 -124.05374" stroke="#000000" stroke-width="0.077507435" stroke-linecap="round" fill="none" />
            <path d="M-55.715701 -131.50256L-49.20738 -117.54542" stroke="#000000" stroke-width="0.077507435" stroke-linecap="round" fill="none" />
            <path d="M-55.715701 -131.50256L-41.758561 -138.01088" stroke="#000000" stroke-width="0.077507435" stroke-linecap="round" fill="none" />
            <path d="M-46.882979 -112.56073L-40.374658 -98.603592" stroke="#000000" stroke-width="0.077507435" stroke-linecap="round" fill="none" />
            <path d="M-26.417518 -105.11191L-40.374658 -98.603592" stroke="#000000" stroke-width="0.077507435" stroke-linecap="round" fill="none" />
            <path d="M-32.92584 -119.06905L-26.417518 -105.11191" stroke="#000000" stroke-width="0.077507435" stroke-linecap="round" fill="none" />
            <path d="M-32.92584 -119.06905L-46.882979 -112.56073" stroke="#000000" stroke-width="0.077507435" stroke-linecap="round" fill="none" />
            <path d="M-37.671962 -93.781988L-31.163641 -79.824848" stroke="#000000" stroke-width="0.077507435" stroke-linecap="round" fill="none" />
            <path d="M-17.206501 -86.333169L-31.163641 -79.824848" stroke="#000000" stroke-width="0.077507435" stroke-linecap="round" fill="none" />
            <path d="M-23.714822 -100.2903L-17.206501 -86.333169" stroke="#000000" stroke-width="0.077507435" stroke-linecap="round" fill="none" />
            <path d="M-23.714822 -100.2903L-37.671962 -93.781988" stroke="#000000" stroke-width="0.077507435" stroke-linecap="round" fill="none" />
            <path d="M-59.366789 -126.31823L-52.858468 -112.36109" stroke="#000000" stroke-width="0.077507435" stroke-linecap="round" fill="none" />
            <path d="M-66.815608 -105.85277L-52.858468 -112.36109" stroke="#000000" stroke-width="0.077507435" stroke-linecap="round" fill="none" />
            <path d="M-73.323929 -119.80991L-66.815608 -105.85277" stroke="#000000" stroke-width="0.077507435" stroke-linecap="round" fill="none" />
            <path d="M-73.323929 -119.80991L-59.366789 -126.31823" stroke="#000000" stroke-width="0.077507435" stroke-linecap="round" fill="none" />
            <path d="M-64.112912 -101.03117L-57.604591 -87.074034" stroke="#000000" stroke-width="0.077507435" stroke-linecap="round" fill="none" />
            <path d="M-43.647451 -93.582356L-57.604591 -87.074034" stroke="#000000" stroke-width="0.077507435" stroke-linecap="round" fill="none" />
            <path d="M-50.155772 -107.53949L-43.647451 -93.582356" stroke="#000000" stroke-width="0.077507435" stroke-linecap="round" fill="none" />
            <path d="M-50.155772 -107.53949L-64.112912 -101.03117" stroke="#000000" stroke-width="0.077507435" stroke-linecap="round" fill="none" />
            <path d="M-55.28019 -82.089341L-48.771869 -68.132202" stroke="#000000" stroke-width="0.077507435" stroke-linecap="round" fill="none" />
            <path d="M-34.814729 -74.640523L-48.771869 -68.132202" stroke="#000000" stroke-width="0.077507435" stroke-linecap="round" fill="none" />
            <path d="M-41.32305 -88.597663L-34.814729 -74.640523" stroke="#000000" stroke-width="0.077507435" stroke-linecap="round" fill="none" />
            <path d="M-41.32305 -88.597663L-55.28019 -82.089341" stroke="#000000" stroke-width="0.077507435" stroke-linecap="round" fill="none" />
            <path d="M-77.064773 -114.81807L-70.556452 -100.86093" stroke="#000000" stroke-width="0.077507435" stroke-linecap="round" fill="none" />
            <path d="M-84.513592 -94.352614L-70.556452 -100.86093" stroke="#000000" stroke-width="0.077507435" stroke-linecap="round" fill="none" />
            <path d="M-91.021913 -108.30975L-84.513592 -94.352614" stroke="#000000" stroke-width="0.077507435" stroke-linecap="round" fill="none" />
            <path d="M-91.021913 -108.30975L-77.064773 -114.81807" stroke="#000000" stroke-width="0.077507435" stroke-linecap="round" fill="none" />
            <path d="M-81.810896 -89.53101L-75.302575 -75.57387" stroke="#000000" stroke-width="0.077507435" stroke-linecap="round" fill="none" />
            <path d="M-61.345435 -82.082191L-75.302575 -75.57387" stroke="#000000" stroke-width="0.077507435" stroke-linecap="round" fill="none" />
            <path d="M-67.853756 -96.039331L-61.345435 -82.082191" stroke="#000000" stroke-width="0.077507435" stroke-linecap="round" fill="none" />
            <path d="M-67.853756 -96.039331L-81.810896 -89.53101" stroke="#000000" stroke-width="0.077507435" stroke-linecap="round" fill="none" />
            <path d="M-72.978174 -70.589177L-66.469853 -56.632037" stroke="#000000" stroke-width="0.077507435" stroke-linecap="round" fill="none" />
            <path d="M-52.512713 -63.140359L-66.469853 -56.632037" stroke="#000000" stroke-width="0.077507435" stroke-linecap="round" fill="none" />
            <path d="M-59.021034 -77.097499L-52.512713 -63.140359" stroke="#000000" stroke-width="0.077507435" stroke-linecap="round" fill="none" />
            <path d="M-59.021034 -77.097499L-72.978174 -70.589177" stroke="#000000" stroke-width="0.077507435" stroke-linecap="round" fill="none" />
            <path d="M-96.900709 -108.81588L-90.392388 -94.858745" stroke="#000000" stroke-width="0.077507435" stroke-linecap="round" fill="none" />
            <path d="M-104.34952 -88.350424L-90.392388 -94.858745" stroke="#000000" stroke-width="0.077507435" stroke-linecap="round" fill="none" />
            <path d="M-110.85784 -102.30756L-104.34952 -88.350424" stroke="#000000" stroke-width="0.077507435" stroke-linecap="round" fill="none" />
            <path d="M-110.85784 -102.30756L-96.900709 -108.81588" stroke="#000000" stroke-width="0.077507435" stroke-linecap="round" fill="none" />
            <path d="M-101.99657 -83.365731L-95.488256 -69.408591" stroke="#000000" stroke-width="0.077507435" stroke-linecap="round" fill="none" />
            <path d="M-81.531116 -75.916912L-95.488256 -69.408591" stroke="#000000" stroke-width="0.077507435" stroke-linecap="round" fill="none" />
            <path d="M-88.039438 -89.874052L-81.531116 -75.916912" stroke="#000000" stroke-width="0.077507435" stroke-linecap="round" fill="none" />
            <path d="M-88.039438 -89.874052L-101.99657 -83.365731" stroke="#000000" stroke-width="0.077507435" stroke-linecap="round" fill="none" />
            <path d="M-93.163856 -64.423898L-86.655535 -50.466758" stroke="#000000" stroke-width="0.077507435" stroke-linecap="round" fill="none" />
            <path d="M-72.698395 -56.975079L-86.655535 -50.466758" stroke="#000000" stroke-width="0.077507435" stroke-linecap="round" fill="none" />
            <path d="M-79.206716 -70.932219L-72.698395 -56.975079" stroke="#000000" stroke-width="0.077507435" stroke-linecap="round" fill="none" />
            <path d="M-119.45043 -106.86677L-113.00392 -93.042188" stroke="#000000" stroke-width="0.077507435" stroke-linecap="round" fill="none" />
            <path d="M-126.96043 -86.534159L-113.00392 -93.042188" stroke="#000000" stroke-width="0.077507435" stroke-linecap="round" fill="none" />
            <path d="M-133.46875 -100.49129L-126.96043 -86.534159" stroke="#000000" stroke-width="0.077507435" stroke-linecap="round" fill="none" />
            <path d="M-133.46875 -100.49129L-119.45043 -106.86677" stroke="#000000" stroke-width="0.077507435" stroke-linecap="round" fill="none" />
            <path d="M-124.28628 -81.712555L-117.77796 -67.755415" stroke="#000000" stroke-width="0.077507435" stroke-linecap="round" fill="none" />
            <path d="M-103.82082 -74.263736L-117.77796 -67.755415" stroke="#000000" stroke-width="0.077507435" stroke-linecap="round" fill="none" />
            <path d="M-110.32914 -88.220876L-103.82082 -74.263736" stroke="#000000" stroke-width="0.077507435" stroke-linecap="round" fill="none" />
            <path d="M-110.32914 -88.220876L-124.28628 -81.712555" stroke="#000000" stroke-width="0.077507435" stroke-linecap="round" fill="none" />
            <path d="M-115.45356 -62.770722L-108.94524 -48.813582" stroke="#000000" stroke-width="0.077507435" stroke-linecap="round" fill="none" />
            <path d="M-94.988104 -55.321903L-108.94524 -48.813582" stroke="#000000" stroke-width="0.077507435" stroke-linecap="round" fill="none" />
            <path d="M-101.49642 -69.279043L-94.988104 -55.321903" stroke="#000000" stroke-width="0.077507435" stroke-linecap="round" fill="none" />
            <path d="M-101.49642 -69.279043L-115.45356 -62.770722" stroke="#000000" stroke-width="0.077507435" stroke-linecap="round" fill="none" />
            <path d="M-79.206716 -70.932219L-93.163856 -64.423898" stroke="#000000" stroke-width="0.077507435" stroke-linecap="round" fill="none" />
            <path d="M2.9721095 -53.509958L2.9720307 -53.507703L2.9717948 -53.505459L2.971403 -53.503236L2.9708571 -53.501047L2.9701598 -53.498901L2.9693145 -53.496809L2.9683253 -53.49478L2.967197 -53.492826L2.9659352 -53.490955L2.9645459 -53.489177L2.963036 -53.4875L2.9614128 -53.485933L2.9596842 -53.484482L2.9578587 -53.483156L2.955945 -53.48196L2.9539527 -53.480901L2.9518912 -53.479983L2.9497708 -53.479211L2.9476017 -53.478589L2.9453945 -53.47812L2.9431599 -53.477806L2.9409089 -53.477649L2.9386524 -53.477649L2.9364013 -53.477806L2.9341668 -53.47812L2.9319596 -53.478589L2.9297905 -53.479211L2.92767 -53.479983L2.9256086 -53.480901L2.9236162 -53.48196L2.9217026 -53.483156L2.919877 -53.484482L2.9181484 -53.485933L2.9165252 -53.4875L2.9150153 -53.489177L2.9136261 -53.490955L2.9123642 -53.492826L2.911236 -53.49478L2.9102468 -53.496809L2.9094015 -53.498901L2.9087042 -53.501047L2.9081583 -53.503236L2.9077664 -53.505459L2.9075306 -53.507703L2.9074518 -53.509958L2.9075306 -53.512213L2.9077664 -53.514457L2.9081583 -53.516679L2.9087042 -53.518869L2.9094015 -53.521015L2.9102468 -53.523107L2.911236 -53.525135L2.9123642 -53.52709L2.9136261 -53.52896L2.9150153 -53.530738L2.9165252 -53.532415L2.9181484 -53.533983L2.919877 -53.535433L2.9217026 -53.53676L2.9236162 -53.537955L2.9256086 -53.539015L2.92767 -53.539933L2.9297905 -53.540704L2.9319596 -53.541326L2.9341668 -53.541796L2.9364013 -53.54211L2.9386524 -53.542267L2.9409089 -53.542267L2.9431599 -53.54211L2.9453945 -53.541796L2.9476017 -53.541326L2.9497708 -53.540704L2.9518912 -53.539933L2.9539527 -53.539015L2.955945 -53.537955L2.9578587 -53.53676L2.9596842 -53.535433L2.9614128 -53.533983L2.963036 -53.532415L2.9645459 -53.530738L2.9659352 -53.52896L2.967197 -53.52709L2.9683253 -53.525135L2.9693145 -53.523107L2.9701598 -53.521015L2.9708571 -53.518869L2.971403 -53.516679L2.9717948 -53.514457L2.9721095 -53.509958" stroke="#000000" stroke-width="0.077507435" stroke-linecap="round" fill="#000000" fill-rule="evenodd" fill-opacity="1" />
            <path d="M2.9721095 -53.509958L2.9720307 -53.507703L2.9717948 -53.505459L2.971403 -53.503236L2.9708571 -53.501047L2.9701598 -53.498901L2.9693145 -53.496809L2.9683253 -53.49478L2.967197 -53.492826L2.9659352 -53.490955L2.9645459 -53.489177L2.963036 -53.4875L2.9614128 -53.485933L2.9596842 -53.484482L2.9578587 -53.483156L2.955945 -53.48196L2.9539527 -53.480901L2.9518912 -53.479983L2.9497708 -53.479211L2.9476017 -53.478589L2.9453945 -53.47812L2.9431599 -53.477806L2.9409089 -53.477649L2.9386524 -53.477649L2.9364013 -53.477806L2.9341668 -53.47812L2.9319596 -53.478589L2.9297905 -53.479211L2.92767 -53.479983L2.9256086 -53.480901L2.9236162 -53.48196L2.9217026 -53.483156L2.919877 -53.484482L2.9181484 -53.485933L2.9165252 -53.4875L2.9150153 -53.489177L2.9136261 -53.490955L2.9123642 -53.492826L2.911236 -53.49478L2.9102468 -53.496809L2.9094015 -53.498901L2.9087042 -53.501047L2.9081583 -53.503236L2.9077664 -53.505459L2.9075306 -53.507703L2.9074518 -53.509958L2.9075306 -53.512213L2.9077664 -53.514457L2.9081583 -53.516679L2.9087042 -53.518869L2.9094015 -53.521015L2.9102468 -53.523107L2.911236 -53.525135L2.9123642 -53.52709L2.9136261 -53.52896L2.9150153 -53.530738L2.9165252 -53.532415L2.9181484 -53.533983L2.919877 -53.535433L2.9217026 -53.53676L2.9236162 -53.537955L2.9256086 -53.539015L2.92767 -53.539933L2.9297905 -53.540704L2.9319596 -53.541326L2.9341668 -53.541796L2.9364013 -53.54211L2.9386524 -53.542267L2.9409089 -53.542267L2.9431599 -53.54211L2.9453945 -53.541796L2.9476017 -53.541326L2.9497708 -53.540704L2.9518912 -53.539933L2.9539527 -53.539015L2.955945 -53.537955L2.9578587 -53.53676L2.9596842 -53.535433L2.9614128 -53.533983L2.963036 -53.532415L2.9645459 -53.530738L2.9659352 -53.52896L2.967197 -53.52709L2.9683253 -53.525135L2.9693145 -53.523107L2.9701598 -53.521015L2.9708571 -53.518869L2.971403 -53.516679L2.9717948 -53.514457L2.9721095 -53.509958" stroke="#000000" stroke-width="0.077507435" stroke-linecap="round" fill="#000000" fill-rule="evenodd" fill-opacity="1" />
            <path d="M2.9721095 66.377528L2.9720307 66.379783L2.9717948 66.382027L2.971403 66.38425L2.9708571 66.386439L2.9701598 66.388585L2.9693145 66.390677L2.9683253 66.392706L2.967197 66.39466L2.9659352 66.396531L2.9645459 66.398309L2.963036 66.399986L2.9614128 66.401553L2.9596842 66.403004L2.9578587 66.40433L2.955945 66.405526L2.9539527 66.406585L2.9518912 66.407503L2.9497708 66.408275L2.9476017 66.408897L2.9453945 66.409366L2.9431599 66.40968L2.9409089 66.409837L2.9386524 66.409837L2.9364013 66.40968L2.9341668 66.409366L2.9319596 66.408897L2.9297905 66.408275L2.92767 66.407503L2.9256086 66.406585L2.9236162 66.405526L2.9217026 66.40433L2.919877 66.403004L2.9181484 66.401553L2.9165252 66.399986L2.9150153 66.398309L2.9136261 66.396531L2.9123642 66.39466L2.911236 66.392706L2.9102468 66.390677L2.9094015 66.388585L2.9087042 66.386439L2.9081583 66.38425L2.9077664 66.382027L2.9075306 66.379783L2.9074518 66.377528L2.9075306 66.375273L2.9077664 66.373029L2.9081583 66.370807L2.9087042 66.368617L2.9094015 66.366471L2.9102468 66.364379L2.911236 66.362351L2.9123642 66.360396L2.9136261 66.358526L2.9150153 66.356748L2.9165252 66.355071L2.9181484 66.353503L2.919877 66.352053L2.9217026 66.350726L2.9236162 66.349531L2.9256086 66.348471L2.92767 66.347553L2.9297905 66.346782L2.9319596 66.34616L2.9341668 66.34569L2.9364013 66.345376L2.9386524 66.345219L2.9409089 66.345219L2.9431599 66.345376L2.9453945 66.34569L2.9476017 66.34616L2.9497708 66.346782L2.9518912 66.347553L2.9539527 66.348471L2.955945 66.349531L2.9578587 66.350726L2.9596842 66.352053L2.9614128 66.353503L2.963036 66.355071L2.9645459 66.356748L2.9659352 66.358526L2.967197 66.360396L2.9683253 66.362351L2.9693145 66.364379L2.9701598 66.366471L2.9708571 66.368617L2.971403 66.370807L2.9717948 66.373029L2.9721095 66.377528" stroke="#000000" stroke-width="0.077507435" stroke-linecap="round" fill="#000000" fill-rule="evenodd" fill-opacity="1" />
            <path d="M2.9721095 66.377528L2.9720307 66.379783L2.9717948 66.382027L2.971403 66.38425L2.9708571 66.386439L2.9701598 66.388585L2.9693145 66.390677L2.9683253 66.392706L2.967197 66.39466L2.9659352 66.396531L2.9645459 66.398309L2.963036 66.399986L2.9614128 66.401553L2.9596842 66.403004L2.9578587 66.40433L2.955945 66.405526L2.9539527 66.406585L2.9518912 66.407503L2.9497708 66.408275L2.9476017 66.408897L2.9453945 66.409366L2.9431599 66.40968L2.9409089 66.409837L2.9386524 66.409837L2.9364013 66.40968L2.9341668 66.409366L2.9319596 66.408897L2.9297905 66.408275L2.92767 66.407503L2.9256086 66.406585L2.9236162 66.405526L2.9217026 66.40433L2.919877 66.403004L2.9181484 66.401553L2.9165252 66.399986L2.9150153 66.398309L2.9136261 66.396531L2.9123642 66.39466L2.911236 66.392706L2.9102468 66.390677L2.9094015 66.388585L2.9087042 66.386439L2.9081583 66.38425L2.9077664 66.382027L2.9075306 66.379783L2.9074518 66.377528L2.9075306 66.375273L2.9077664 66.373029L2.9081583 66.370807L2.9087042 66.368617L2.9094015 66.366471L2.9102468 66.364379L2.911236 66.362351L2.9123642 66.360396L2.9136261 66.358526L2.9150153 66.356748L2.9165252 66.355071L2.9181484 66.353503L2.919877 66.352053L2.9217026 66.350726L2.9236162 66.349531L2.9256086 66.348471L2.92767 66.347553L2.9297905 66.346782L2.9319596 66.34616L2.9341668 66.34569L2.9364013 66.345376L2.9386524 66.345219L2.9409089 66.345219L2.9431599 66.345376L2.9453945 66.34569L2.9476017 66.34616L2.9497708 66.346782L2.9518912 66.347553L2.9539527 66.348471L2.955945 66.349531L2.9578587 66.350726L2.9596842 66.352053L2.9614128 66.353503L2.963036 66.355071L2.9645459 66.356748L2.9659352 66.358526L2.967197 66.360396L2.9683253 66.362351L2.9693145 66.364379L2.9701598 66.366471L2.9708571 66.368617L2.971403 66.370807L2.9717948 66.373029L2.9721095 66.377528" stroke="#000000" stroke-width="0.077507435" stroke-linecap="round" fill="#000000" fill-rule="evenodd" fill-opacity="1" />
            <path d="M2.625827 -186.75225L2.6257483 -186.75L2.6255124 -186.74775L2.6251206 -186.74553L2.6245747 -186.74334L2.6238773 -186.74119L2.623032 -186.7391L2.6220428 -186.73707L2.6209146 -186.73512L2.6196528 -186.73325L2.6182635 -186.73147L2.6167536 -186.72979L2.6151304 -186.72823L2.6134018 -186.72678L2.6115762 -186.72545L2.6096626 -186.72425L2.6076702 -186.72319L2.6056088 -186.72228L2.6034883 -186.7215L2.6013192 -186.72088L2.599112 -186.72041L2.5968775 -186.7201L2.5946264 -186.71994L2.5923699 -186.71994L2.5901189 -186.7201L2.5878843 -186.72041L2.5856771 -186.72088L2.583508 -186.7215L2.5813876 -186.72228L2.5793262 -186.72319L2.5773338 -186.72425L2.5754201 -186.72545L2.5735946 -186.72678L2.571866 -186.72823L2.5702428 -186.72979L2.5687329 -186.73147L2.5673436 -186.73325L2.5660818 -186.73512L2.5649535 -186.73707L2.5639643 -186.7391L2.563119 -186.74119L2.5624217 -186.74334L2.5618758 -186.74553L2.561484 -186.74775L2.5612481 -186.75L2.5611694 -186.75225L2.5612481 -186.75451L2.561484 -186.75675L2.5618758 -186.75897L2.5624217 -186.76116L2.563119 -186.76331L2.5639643 -186.7654L2.5649535 -186.76743L2.5660818 -186.76938L2.5673436 -186.77125L2.5687329 -186.77303L2.5702428 -186.77471L2.571866 -186.77628L2.5735946 -186.77773L2.5754201 -186.77905L2.5773338 -186.78025L2.5793262 -186.78131L2.5813876 -186.78223L2.583508 -186.783L2.5856771 -186.78362L2.5878843 -186.78409L2.5901189 -186.7844L2.5923699 -186.78456L2.5946264 -186.78456L2.5968775 -186.7844L2.599112 -186.78409L2.6013192 -186.78362L2.6034883 -186.783L2.6056088 -186.78223L2.6076702 -186.78131L2.6096626 -186.78025L2.6115762 -186.77905L2.6134018 -186.77773L2.6151304 -186.77628L2.6167536 -186.77471L2.6182635 -186.77303L2.6196528 -186.77125L2.6209146 -186.76938L2.6220428 -186.76743L2.623032 -186.7654L2.6238773 -186.76331L2.6245747 -186.76116L2.6251206 -186.75897L2.6255124 -186.75675L2.625827 -186.75225" stroke="#000000" stroke-width="0.077507435" stroke-linecap="round" fill="#000000" fill-rule="evenodd" fill-opacity="1" />
            <path d="M2.625827 -186.75225L2.6257483 -186.75L2.6255124 -186.74775L2.6251206 -186.74553L2.6245747 -186.74334L2.6238773 -186.74119L2.623032 -186.7391L2.6220428 -186.73707L2.6209146 -186.73512L2.6196528 -186.73325L2.6182635 -186.73147L2.6167536 -186.72979L2.6151304 -186.72823L2.6134018 -186.72678L2.6115762 -186.72545L2.6096626 -186.72425L2.6076702 -186.72319L2.6056088 -186.72228L2.6034883 -186.7215L2.6013192 -186.72088L2.599112 -186.72041L2.5968775 -186.7201L2.5946264 -186.71994L2.5923699 -186.71994L2.5901189 -186.7201L2.5878843 -186.72041L2.5856771 -186.72088L2.583508 -186.7215L2.5813876 -186.72228L2.5793262 -186.72319L2.5773338 -186.72425L2.5754201 -186.72545L2.5735946 -186.72678L2.571866 -186.72823L2.5702428 -186.72979L2.5687329 -186.73147L2.5673436 -186.73325L2.5660818 -186.73512L2.5649535 -186.73707L2.5639643 -186.7391L2.563119 -186.74119L2.5624217 -186.74334L2.5618758 -186.74553L2.561484 -186.74775L2.5612481 -186.75L2.5611694 -186.75225L2.5612481 -186.75451L2.561484 -186.75675L2.5618758 -186.75897L2.5624217 -186.76116L2.563119 -186.76331L2.5639643 -186.7654L2.5649535 -186.76743L2.5660818 -186.76938L2.5673436 -186.77125L2.5687329 -186.77303L2.5702428 -186.77471L2.571866 -186.77628L2.5735946 -186.77773L2.5754201 -186.77905L2.5773338 -186.78025L2.5793262 -186.78131L2.5813876 -186.78223L2.583508 -186.783L2.5856771 -186.78362L2.5878843 -186.78409L2.5901189 -186.7844L2.5923699 -186.78456L2.5946264 -186.78456L2.5968775 -186.7844L2.599112 -186.78409L2.6013192 -186.78362L2.6034883 -186.783L2.6056088 -186.78223L2.6076702 -186.78131L2.6096626 -186.78025L2.6115762 -186.77905L2.6134018 -186.77773L2.6151304 -186.77628L2.6167536 -186.77471L2.6182635 -186.77303L2.6196528 -186.77125L2.6209146 -186.76938L2.6220428 -186.76743L2.623032 -186.7654L2.6238773 -186.76331L2.6245747 -186.76116L2.6251206 -186.75897L2.6255124 -186.75675L2.625827 -186.75225" stroke="#000000" stroke-width="0.077507435" stroke-linecap="round" fill="#000000" fill-rule="evenodd" fill-opacity="1" />
            <path d="M2.625827 -66.864768L2.6257483 -66.862513L2.6255124 -66.860269L2.6251206 -66.858046L2.6245747 -66.855857L2.6238773 -66.853711L2.623032 -66.851619L2.6220428 -66.849591L2.6209146 -66.847636L2.6196528 -66.845766L2.6182635 -66.843987L2.6167536 -66.84231L2.6151304 -66.840743L2.6134018 -66.839293L2.6115762 -66.837966L2.6096626 -66.83677L2.6076702 -66.835711L2.6056088 -66.834793L2.6034883 -66.834021L2.6013192 -66.833399L2.599112 -66.83293L2.5968775 -66.832616L2.5946264 -66.832459L2.5923699 -66.832459L2.5901189 -66.832616L2.5878843 -66.83293L2.5856771 -66.833399L2.583508 -66.834021L2.5813876 -66.834793L2.5793262 -66.835711L2.5773338 -66.83677L2.5754201 -66.837966L2.5735946 -66.839293L2.571866 -66.840743L2.5702428 -66.84231L2.5687329 -66.843987L2.5673436 -66.845766L2.5660818 -66.847636L2.5649535 -66.849591L2.5639643 -66.851619L2.563119 -66.853711L2.5624217 -66.855857L2.5618758 -66.858046L2.561484 -66.860269L2.5612481 -66.862513L2.5611694 -66.864768L2.5612481 -66.867023L2.561484 -66.869267L2.5618758 -66.87149L2.5624217 -66.873679L2.563119 -66.875825L2.5639643 -66.877917L2.5649535 -66.879945L2.5660818 -66.8819L2.5673436 -66.88377L2.5687329 -66.885549L2.5702428 -66.887225L2.571866 -66.888793L2.5735946 -66.890243L2.5754201 -66.89157L2.5773338 -66.892766L2.5793262 -66.893825L2.5813876 -66.894743L2.583508 -66.895515L2.5856771 -66.896136L2.5878843 -66.896606L2.5901189 -66.89692L2.5923699 -66.897077L2.5946264 -66.897077L2.5968775 -66.89692L2.599112 -66.896606L2.6013192 -66.896136L2.6034883 -66.895515L2.6056088 -66.894743L2.6076702 -66.893825L2.6096626 -66.892766L2.6115762 -66.89157L2.6134018 -66.890243L2.6151304 -66.888793L2.6167536 -66.887225L2.6182635 -66.885549L2.6196528 -66.88377L2.6209146 -66.8819L2.6220428 -66.879945L2.623032 -66.877917L2.6238773 -66.875825L2.6245747 -66.873679L2.6251206 -66.87149L2.6255124 -66.869267L2.625827 -66.864768" stroke="#000000" stroke-width="0.077507435" stroke-linecap="round" fill="#000000" fill-rule="evenodd" fill-opacity="1" />
            <path d="M2.625827 -66.864768L2.6257483 -66.862513L2.6255124 -66.860269L2.6251206 -66.858046L2.6245747 -66.855857L2.6238773 -66.853711L2.623032 -66.851619L2.6220428 -66.849591L2.6209146 -66.847636L2.6196528 -66.845766L2.6182635 -66.843987L2.6167536 -66.84231L2.6151304 -66.840743L2.6134018 -66.839293L2.6115762 -66.837966L2.6096626 -66.83677L2.6076702 -66.835711L2.6056088 -66.834793L2.6034883 -66.834021L2.6013192 -66.833399L2.599112 -66.83293L2.5968775 -66.832616L2.5946264 -66.832459L2.5923699 -66.832459L2.5901189 -66.832616L2.5878843 -66.83293L2.5856771 -66.833399L2.583508 -66.834021L2.5813876 -66.834793L2.5793262 -66.835711L2.5773338 -66.83677L2.5754201 -66.837966L2.5735946 -66.839293L2.571866 -66.840743L2.5702428 -66.84231L2.5687329 -66.843987L2.5673436 -66.845766L2.5660818 -66.847636L2.5649535 -66.849591L2.5639643 -66.851619L2.563119 -66.853711L2.5624217 -66.855857L2.5618758 -66.858046L2.561484 -66.860269L2.5612481 -66.862513L2.5611694 -66.864768L2.5612481 -66.867023L2.561484 -66.869267L2.5618758 -66.87149L2.5624217 -66.873679L2.563119 -66.875825L2.5639643 -66.877917L2.5649535 -66.879945L2.5660818 -66.8819L2.5673436 -66.88377L2.5687329 -66.885549L2.5702428 -66.887225L2.571866 -66.888793L2.5735946 -66.890243L2.5754201 -66.89157L2.5773338 -66.892766L2.5793262 -66.893825L2.5813876 -66.894743L2.583508 -66.895515L2.5856771 -66.896136L2.5878843 -66.896606L2.5901189 -66.89692L2.5923699 -66.897077L2.5946264 -66.897077L2.5968775 -66.89692L2.599112 -66.896606L2.6013192 -66.896136L2.6034883 -66.895515L2.6056088 -66.894743L2.6076702 -66.893825L2.6096626 -66.892766L2.6115762 -66.89157L2.6134018 -66.890243L2.6151304 -66.888793L2.6167536 -66.887225L2.6182635 -66.885549L2.6196528 -66.88377L2.6209146 -66.8819L2.6220428 -66.879945L2.623032 -66.877917L2.6238773 -66.875825L2.6245747 -66.873679L2.6251206 -66.87149L2.6255124 -66.869267L2.625827 -66.864768" stroke="#000000" stroke-width="0.077507435" stroke-linecap="round" fill="#000000" fill-rule="evenodd" fill-opacity="1" />
    </g>
</g>
</svg>